<svg version="1.1" id="Layer_1" xmlns="http://www.w3.org/2000/svg" x="0" y="0" viewBox="0 0 776 99" xml:space="preserve" enable-background="new 0 0 776 99"><style>.st1{fill:#3f4358}.st2{fill:#46e3b7}</style><g id="Group_2766_1_"><path class="st1" d="M15957.94 8545.43c-3.65 0-6.5.95-9.31 2.45v27.17c0 .73-.62 1.42-1.35 1.42h-6.21c-.73 0-1.35-.66-1.35-1.42v-35.36c0-.73.62-1.35 1.35-1.35h5.88c.73 0 1.35.62 1.35 1.35v1.42c3.32-2.56 6.98-3.25 9.68-3.25.73 0 1.35.62 1.35 1.35v4.86c-.04.74-.66 1.36-1.39 1.36zM15993.55 8560.48h-22.02v.22c0 3.91 1.61 8.58 8.11 8.58 4.93 0 9.61-.4 12.42-.69h.22c.69 0 1.21.33 1.21 1.02v4.46c0 1.1-.22 1.57-1.42 1.75-4.38.8-7.01 1.13-13.11 1.13-6.76 0-16.36-3.65-16.36-16.95v-5c0-10.56 5.88-17.17 16.22-17.17 10.41 0 16.07 7.09 16.07 17.17v3.8c.01 1.1-.39 1.68-1.34 1.68zm-7.63-6.61c0-5.26-2.92-8.33-7.09-8.33s-7.23 2.96-7.23 8.33v.26h14.32v-.26zM16032.38 8576.44h-6.21c-.73 0-1.35-.66-1.35-1.42V8553c0-5.88-.55-7.56-5.73-7.56-2.3 0-4.78.95-7.63 2.45v27.17c0 .73-.62 1.42-1.35 1.42h-6.21c-.73 0-1.35-.66-1.35-1.42v-35.36c0-.73.62-1.35 1.35-1.35h5.88c.73 0 1.35.62 1.35 1.35v1.42c3.91-2.48 6.5-3.25 10.96-3.25 9.72 0 11.69 6.54 11.69 15.12v22.02c-.05.78-.64 1.43-1.4 1.43zM16070.91 8575.24c-4.2 1.1-9.24 1.75-13.59 1.75-10.88 0-16.14-6.43-16.14-16.95v-5.19c0-10.56 5.26-16.95 16.14-16.95 1.61 0 3.98.15 6.5.47v-11.94c0-.73.62-1.35 1.35-1.35h6.21c.73 0 1.35.62 1.35 1.35v47.04c.01.96-.29 1.37-1.82 1.77zm-7.09-29.62c-1.9-.26-4.86-.47-6.5-.47-5.81 0-7.23 4.13-7.23 9.68v5.19c0 5.55 1.42 9.68 7.23 9.68 2.45 0 5.19-.22 6.5-.47v-23.61zM16111.31 8560.48h-22.03v.22c0 3.91 1.61 8.58 8.11 8.58 4.93 0 9.61-.4 12.42-.69h.22c.66 0 1.21.33 1.21 1.02v4.46c0 1.1-.22 1.57-1.42 1.75-4.38.8-7.01 1.13-13.11 1.13-6.76 0-16.36-3.65-16.36-16.95v-5c0-10.56 5.88-17.17 16.22-17.17 10.41 0 16.07 7.09 16.07 17.17v3.8c.02 1.1-.38 1.68-1.33 1.68zm-7.64-6.61c0-5.26-2.92-8.33-7.09-8.33-4.2 0-7.23 2.96-7.23 8.33v.26h14.32v-.26zM16138.55 8545.43c-3.65 0-6.5.95-9.31 2.45v27.17c0 .73-.62 1.42-1.35 1.42h-6.21c-.73 0-1.35-.66-1.35-1.42v-35.36c0-.73.62-1.35 1.35-1.35h5.88c.73 0 1.35.62 1.35 1.35v1.42c3.32-2.56 6.98-3.25 9.68-3.25.73 0 1.35.62 1.35 1.35v4.86c-.04.74-.66 1.36-1.39 1.36z" transform="translate(-15853 -8503)"/><g><path class="st2" d="M15894.5 8516.54h-.73v8.26h8.25v-8.26h-.73zM15872.65 8516.54c-2.63 0-5.19.51-7.6 1.53-2.34.99-4.42 2.41-6.21 4.2s-3.21 3.87-4.2 6.21a19.397 19.397 0 00-1.53 7.6v29.36h8.25v-29.47c.15-2.96 1.39-5.74 3.47-7.78 2.12-2.08 4.89-3.29 7.85-3.4H15888.46v-8.25h-15.81zM15908.05 8543.64h-.73v8.26h8.25v-8.26h-.73zM15908.05 8530.09h-.73v8.26h8.25v-8.26h-.73zM15914.84 8516.54h-7.52v8.26h8.25v-8.26zM15908.05 8557.19h-.73v8.26h8.25v-8.26h-.73zM15908.05 8570.75h-.73v8.25h8.25v-8.25h-.73zM15894.5 8570.75h-.73v8.25h8.25v-8.25h-.73zM15880.95 8570.75h-.74v8.25h8.26v-8.25h-.73zM15867.39 8570.75h-.73v8.25h8.26v-8.25h-.73zM15853.84 8570.75h-.73v8.25h8.26v-8.25h-.73z" transform="translate(-15853 -8503)"/></g></g><path d="M538.69 69.07v-30.9h6.7V40c0 .71-.08 1.58-.16 2.38 2.05-3.09 5.12-4.91 8.83-4.91 4.34 0 7.33 2.06 8.83 5.47 2.05-3.33 5.44-5.47 9.78-5.47 5.99 0 10.25 3.96 10.25 11.57v20.04h-6.7V49.35c0-3.72-2.21-6.26-5.68-6.26-3.47 0-6.39 2.85-6.39 7.68v18.3h-6.7v-19.8c0-3.64-2.21-5.94-5.52-5.94-3.39 0-6.31 2.61-6.46 7.21v18.62h-6.78v-.09zm79.31 0c-3.94 0-5.91-2.22-6.86-5.47-1.97 3.01-5.76 6.1-11.83 6.1-6.94 0-10.49-4.44-10.49-9.11 0-5.55 4.49-10.22 13.8-10.22 3.31 0 6.23.63 7.81.95v-1.58c0-3.88-2.76-6.5-6.94-6.5-2.76 0-5.44 1.35-6.94 3.64l-4.89-3.56s3.55-6.1 12.14-6.1c8.28 0 13.32 5.07 13.32 12.44v11.33c0 1.11.71 1.82 1.89 1.82h.95v6.26H618zM610.44 56c-1.5-.32-4.18-.79-6.62-.79-4.81 0-7.96 2.06-7.96 5.07 0 2.14 1.66 3.96 5.05 3.96 5.5-.08 8.82-4.2 9.53-8.24zm43.91 13.07h-6.78V51.49c0-5.47-3.15-8.32-7.1-8.32-4.34 0-7.73 3.33-7.81 8.08v17.9h-6.7v-30.9h6.7v2.06c0 .71-.08 1.66-.16 2.53 2.13-3.09 5.6-5.39 9.93-5.39 7.02 0 11.9 4.91 11.9 13.78v17.84zm11.04-44.52c2.68 0 4.89 2.22 4.89 4.83 0 2.69-2.21 4.91-4.89 4.91-2.6 0-4.81-2.22-4.81-4.91 0-2.61 2.21-4.83 4.81-4.83zm-3.47 44.52v-30.9h6.94v30.9h-6.94zm24.75-24.87v24.87h-6.94V44.2H675v-6.02h4.73v-7.53c0-7.05 4.65-11.49 10.72-11.49 3 0 5.28.95 6.94 2.53l-3.15 5.15c-.87-1.03-2.05-1.51-3.31-1.51-2.6 0-4.34 1.9-4.34 5.55v7.29h7.02v6.02h-6.94v.01zm10.02 9.35c0-9.03 6.94-16.08 15.85-16.08 8.83 0 15.85 7.05 15.85 16.08 0 9.11-7.02 16.16-15.85 16.16-8.92 0-15.85-7.05-15.85-16.16zm24.91 0c0-5.86-3.63-10.06-9.15-10.06-5.52 0-9.22 4.36-9.22 10.06 0 5.86 3.86 10.14 9.22 10.14 5.52 0 9.15-4.2 9.15-10.14zm12.22 15.52V19.96h6.94v49.12l-6.94-.01zm35.64 0c0-2.06.08-3.56.16-4.52-2.37 3.25-5.83 5.15-9.78 5.15-8.2 0-13.64-6.97-13.64-16.24 0-9.19 5.52-16 13.72-16 3.78 0 7.17 1.51 9.54 4.52-.08-.4-.16-.79-.16-1.19V19.96h6.7v49.12l-6.54-.01zm-.16-15.44c0-6.02-3.07-10.06-8.04-10.06-4.89 0-8.36 4.12-8.36 9.98s3.55 10.22 8.36 10.22c4.96 0 8.04-4.36 8.04-10.14z"/><defs><filter id="Adobe_OpacityMaskFilter" filterUnits="userSpaceOnUse" x="403.47" y="-.24" width="99.02" height="59.12"><feColorMatrix values="1 0 0 0 0 0 1 0 0 0 0 0 1 0 0 0 0 0 1 0"/></filter></defs><mask maskUnits="userSpaceOnUse" x="403.47" y="-.24" width="99.02" height="59.12" id="manifold-mask_4_"><circle cx="452.98" cy="49.27" r="49.51" fill-rule="evenodd" clip-rule="evenodd" fill="#fff" filter="url(#Adobe_OpacityMaskFilter)"/></mask><linearGradient id="SVGID_1_" gradientUnits="userSpaceOnUse" x1="-3.216" y1="660.385" x2="-3.039" y2="660.489" gradientTransform="matrix(512 0 0 -305.672 2044 201910.188)"><stop offset="0" stop-color="#ff0264"/><stop offset=".408" stop-color="#fe624e"/><stop offset=".817" stop-color="#fdbc39"/><stop offset="1" stop-color="#fddf31"/></linearGradient><path d="M502.49 58.88h-99.02V-.24h99.02v59.12z" mask="url(#manifold-mask_4_)" fill-rule="evenodd" clip-rule="evenodd" fill="url(#SVGID_1_)"/><defs><filter id="Adobe_OpacityMaskFilter_1_" filterUnits="userSpaceOnUse" x="420" y="20.6" width="82.49" height="76.02"><feColorMatrix values="1 0 0 0 0 0 1 0 0 0 0 0 1 0 0 0 0 0 1 0"/></filter></defs><mask maskUnits="userSpaceOnUse" x="420" y="20.6" width="82.49" height="76.02" id="manifold-mask_3_"><circle cx="452.98" cy="49.27" r="49.51" fill-rule="evenodd" clip-rule="evenodd" fill="#fff" filter="url(#Adobe_OpacityMaskFilter_1_)"/></mask><linearGradient id="SVGID_2_" gradientUnits="userSpaceOnUse" x1="-3.206" y1="660.771" x2="-3.013" y2="660.771" gradientTransform="matrix(426.526 0 0 -393.062 1787.578 259782.734)"><stop offset="0" stop-color="#140a3b"/><stop offset=".68" stop-color="#064e91"/><stop offset="1" stop-color="#006ab4"/></linearGradient><path d="M502.49 84.28c-20.64 25.37-50.13 3.78-50.13 3.78L420 59.25l7.69-6.75c3.76-3.36 3.4-26.8 14.65-31.18 4.87-1.88 10.02.49 11.01.82 1.17.39 31.94 12.23 49.14 18.88v43.26z" mask="url(#manifold-mask_3_)" fill="url(#SVGID_2_)"/><defs><filter id="Adobe_OpacityMaskFilter_2_" filterUnits="userSpaceOnUse" x="442.13" y="39.44" width="60.36" height="59.34"><feColorMatrix values="1 0 0 0 0 0 1 0 0 0 0 0 1 0 0 0 0 0 1 0"/></filter></defs><mask maskUnits="userSpaceOnUse" x="442.13" y="39.44" width="60.36" height="59.34" id="manifold-mask_2_"><circle cx="452.98" cy="49.27" r="49.51" fill-rule="evenodd" clip-rule="evenodd" fill="#fff" filter="url(#Adobe_OpacityMaskFilter_2_)"/></mask><linearGradient id="SVGID_3_" gradientUnits="userSpaceOnUse" x1="-3.21" y1="660.99" x2="-2.876" y2="660.99" gradientTransform="matrix(312.066 0 0 -306.8248 1444.198 202877.344)"><stop offset="0" stop-color="#349fd3"/><stop offset=".352" stop-color="#218abe"/><stop offset="1" stop-color="#00679b"/></linearGradient><path d="M502.49 41.3v57.48h-57.86c-1.22-5.03-2.49-12.14-2.49-16.82 0-13.83 7.24-23.04 14.77-19.03 2.05 1.1 3.85 3.4 5.85 6.51 3.07 4.83 6.26 7.16 9.25 7.24 1.02.04 2.09-.2 3.03-.7 2.17-1.15 4.13-3.6 5.69-7.37 1.15-2.66 2.05-6.02 2.7-9.94l.33-2.09c.94-5.81 2.5-10.27 4.42-13.34 0 0 .08-.12.2-.29.9-1.31 4.62-5.77 13.13-2.13.32.17.65.32.98.48z" mask="url(#manifold-mask_2_)" fill="url(#SVGID_3_)"/><defs><filter id="Adobe_OpacityMaskFilter_3_" filterUnits="userSpaceOnUse" x="403.47" y="41.09" width="52.09" height="57.69"><feColorMatrix values="1 0 0 0 0 0 1 0 0 0 0 0 1 0 0 0 0 0 1 0"/></filter></defs><mask maskUnits="userSpaceOnUse" x="403.47" y="41.09" width="52.09" height="57.69" id="manifold-mask_1_"><circle cx="452.98" cy="49.27" r="49.51" fill-rule="evenodd" clip-rule="evenodd" fill="#fff" filter="url(#Adobe_OpacityMaskFilter_3_)"/></mask><linearGradient id="SVGID_4_" gradientUnits="userSpaceOnUse" x1="-2.487" y1="661.016" x2="-2.294" y2="661.016" gradientTransform="matrix(269.329 0 0 -298.309 1073.316 197256.938)"><stop offset="0" stop-color="#a34cb4"/><stop offset=".092" stop-color="#954db2"/><stop offset=".717" stop-color="#3c52a1"/><stop offset="1" stop-color="#19549b"/></linearGradient><path d="M403.47 41.09l52.09 21.15c-6.83-2.25-12.48 8.67-12.48 20.66 0 4.83 1.1 10.27 2.41 15.02 0 .08.06.37.18.86h-42.2V41.09z" mask="url(#manifold-mask_1_)" fill="url(#SVGID_4_)"/><text transform="translate(330.14 68.86)" font-size="60.353" font-family="SFProDisplay-Black">+</text></svg>